<svg width="173" height="28" viewBox="0 0 173 28" fill="none" xmlns="http://www.w3.org/2000/svg">
<path d="M23.0124 18.6566C23.0124 19.6242 22.7811 20.4104 22.3187 21.0151C21.8562 21.5997 21.2028 22.0734 20.3583 22.4363C19.6545 22.7387 18.7698 22.9806 17.7041 23.162C16.6385 23.3233 15.5326 23.4442 14.3865 23.5248C13.2404 23.5853 12.1144 23.6256 11.0085 23.6458C9.90266 23.6659 8.97774 23.676 8.23379 23.676C6.96705 23.676 5.71037 23.6559 4.46374 23.6156C3.23722 23.5752 1.99059 23.5148 0.723849 23.4341C0.78417 21.378 0.723849 19.342 0.542887 17.3261C2.05091 17.3665 3.54887 17.4068 5.03679 17.4471C6.5448 17.4672 8.05282 17.4975 9.56084 17.5378C10.1439 17.558 10.727 17.5781 11.3101 17.5983C11.9134 17.6184 12.5166 17.6285 13.1198 17.6285C13.2203 17.6285 13.3711 17.6285 13.5722 17.6285C13.7732 17.6285 13.9844 17.6184 14.2055 17.5983C14.4267 17.5781 14.6278 17.5479 14.8088 17.5076C15.0098 17.4672 15.1606 17.4068 15.2612 17.3261C15.3416 17.2455 15.3919 17.1346 15.412 16.9935C15.4321 16.8323 15.4421 16.6911 15.4421 16.5702C15.4421 16.3485 15.412 16.0864 15.3516 15.784C15.2913 15.4615 15.2008 15.1994 15.0802 14.9978C15.0601 14.9777 14.9897 14.9575 14.8691 14.9374C14.7685 14.9172 14.6479 14.9071 14.5071 14.9071C14.3664 14.887 14.2357 14.8769 14.1151 14.8769C13.9944 14.8567 13.924 14.8467 13.9039 14.8467C12.6171 14.7459 11.3303 14.6753 10.0434 14.635C8.77667 14.5947 7.49988 14.5241 6.21304 14.4233C5.62994 14.3629 5.02673 14.3024 4.40342 14.2419C3.80021 14.1814 3.23722 14.0706 2.71444 13.9093C2.21176 13.7682 1.77946 13.4557 1.41754 12.9719C1.07572 12.468 0.794224 11.9035 0.573047 11.2786C0.371978 10.6335 0.221176 9.98848 0.120642 9.34341C0.0402139 8.69834 0 8.15407 0 7.71058C0 6.98488 0.0703742 6.2995 0.211123 5.65443C0.351871 4.9892 0.573047 4.37437 0.874651 3.80994C1.19636 3.2455 1.5985 2.75162 2.08107 2.32829C2.56363 1.88481 3.15679 1.52196 3.86053 1.23974C5.06695 0.776098 6.35379 0.453564 7.72106 0.272138C9.10844 0.0907128 10.4355 0 11.7022 0C13.1901 0 14.6579 0.0907128 16.1056 0.272138C17.5533 0.453564 19.001 0.685385 20.4487 0.967603C20.4286 1.5522 20.4085 2.13679 20.3884 2.72138C20.3884 3.28582 20.3884 3.86033 20.3884 4.44492C20.3884 5.02952 20.4186 5.62419 20.4789 6.22894C20.5392 6.81354 20.5995 7.39813 20.6599 7.98272C18.7497 8.02304 16.8396 8.06336 14.9294 8.10367C13.0393 8.12383 11.1292 8.17423 9.19892 8.25486C8.95764 8.25486 8.62587 8.26494 8.20363 8.2851C7.80149 8.30526 7.4094 8.33549 7.02737 8.37581C6.64534 8.39597 6.31357 8.41613 6.03208 8.43629C5.75058 8.45644 5.60983 8.46652 5.60983 8.46652C5.5093 8.68827 5.44898 8.92009 5.42887 9.16199C5.40876 9.38373 5.39871 9.61555 5.39871 9.85745C5.39871 9.9784 5.39871 10.1296 5.39871 10.311C5.41882 10.4924 5.46908 10.6335 5.54951 10.7343C5.56962 10.7545 5.74053 10.7847 6.06224 10.8251C6.38395 10.8654 6.73582 10.9057 7.11785 10.946C7.51999 10.9863 7.89197 11.0266 8.23379 11.067C8.59571 11.1073 8.81689 11.1274 8.89732 11.1274C9.56084 11.1879 10.335 11.2585 11.2197 11.3391C12.1245 11.4197 13.0393 11.5104 13.9643 11.6112C14.9093 11.712 15.8141 11.8431 16.6787 12.0043C17.5433 12.1454 18.2973 12.3168 18.9407 12.5184C19.5238 12.7199 20.0567 13.0425 20.5392 13.486C21.0419 13.9093 21.4742 14.4132 21.8361 14.9978C22.198 15.5623 22.4795 16.167 22.6806 16.8121C22.9018 17.437 23.0124 18.0518 23.0124 18.6566Z" fill="#FFBB00"/>
<path d="M46.1454 18.0216C46.1454 18.2433 46.1454 18.5659 46.1454 18.9892C46.1454 19.4125 46.1353 19.8963 46.1152 20.4406C46.0951 20.9647 46.065 21.5191 46.0248 22.1037C46.0046 22.6681 45.9745 23.2124 45.9343 23.7365C45.8941 24.2405 45.8337 24.6839 45.7533 25.067C45.693 25.4701 45.6226 25.7523 45.5422 25.9136C45.2004 26.4579 44.8787 26.8711 44.5771 27.1533C44.2956 27.4557 43.9839 27.6674 43.6421 27.7883C43.3003 27.9093 42.9082 27.9698 42.4658 27.9698C42.0436 27.9899 41.5409 28 40.9578 28C39.0275 28 37.1073 27.9194 35.1972 27.7581C33.287 27.617 31.3769 27.4456 29.4667 27.2441V23.1015C29.6477 23.1015 30.0397 23.1015 30.643 23.1015C31.2663 23.0814 31.9901 23.0612 32.8145 23.041C33.6389 23.0209 34.5135 22.9906 35.4385 22.9503C36.3634 22.91 37.228 22.8596 38.0323 22.7991C38.8365 22.7387 39.5302 22.6681 40.1133 22.5875C40.6964 22.5068 41.0583 22.406 41.1991 22.2851C41.3801 22.144 41.5208 21.9323 41.6213 21.6501C41.742 21.3477 41.8224 21.0353 41.8626 20.7127C41.9229 20.3902 41.9632 20.0677 41.9833 19.7451C42.0034 19.4226 42.0134 19.1605 42.0134 18.959C42.0134 18.7574 42.0134 18.5659 42.0134 18.3844C42.0134 18.203 42.0034 18.0014 41.9833 17.7797C41.6817 18.4651 41.2795 18.9791 40.7768 19.3218C40.2742 19.6645 39.7112 19.9064 39.0879 20.0475C38.4646 20.1886 37.8111 20.2693 37.1274 20.2894C36.4438 20.2894 35.7903 20.2894 35.167 20.2894C33.8601 20.2894 32.5933 20.239 31.3668 20.1382C30.1604 20.0173 29.0847 19.725 28.1396 19.2613C27.2147 18.7977 26.4607 18.1022 25.8776 17.1749C25.3146 16.2275 25.0331 14.9273 25.0331 13.2743C25.0331 11.6415 25.1437 10.0187 25.3649 8.40605C25.5861 6.77322 25.8676 5.16055 26.2094 3.56803L32.5732 3.62851C32.2314 4.89849 31.9298 6.18863 31.6684 7.49892C31.407 8.80922 31.2763 10.1296 31.2763 11.46C31.2763 12.1656 31.3266 12.7401 31.4271 13.1836C31.5277 13.6271 31.7086 13.9899 31.97 14.2721C32.2314 14.5342 32.5933 14.7156 33.0558 14.8164C33.5182 14.9172 34.1013 14.9676 34.8051 14.9676C35.0866 14.9676 35.4284 14.9474 35.8305 14.9071C36.2528 14.8668 36.675 14.8164 37.0973 14.7559C37.5396 14.6753 37.9518 14.5745 38.3339 14.4536C38.736 14.3326 39.0477 14.1814 39.2688 14C39.3493 13.9395 39.4196 13.7379 39.4799 13.3952C39.5403 13.0526 39.5905 12.6494 39.6308 12.1857C39.671 11.7019 39.7011 11.1879 39.7212 10.6436C39.7413 10.0994 39.7514 9.58531 39.7514 9.10151C39.7715 8.61771 39.7816 8.20446 39.7816 7.86177C39.7816 7.49892 39.7816 7.2671 39.7816 7.16631C39.7816 6.48092 39.7816 5.80562 39.7816 5.14039C39.7816 4.455 39.7614 3.76962 39.7212 3.08423C40.7065 3.18503 41.6716 3.27574 42.6166 3.35637C43.5818 3.41685 44.5569 3.46724 45.5422 3.50756C45.6226 5.46292 45.703 7.39813 45.7835 9.31318C45.884 11.2282 45.9845 13.1634 46.0851 15.1188C46.1253 15.6026 46.1454 16.0965 46.1454 16.6004C46.1454 17.0842 46.1454 17.558 46.1454 18.0216Z" fill="#FFBB00"/>
<path d="M66.2925 2.99352L66.1116 6.92441C65.4883 6.88409 64.8649 6.85385 64.2416 6.83369C63.6183 6.81354 62.995 6.80346 62.3717 6.80346C62.1103 6.80346 61.7383 6.81354 61.2558 6.83369C60.7732 6.83369 60.2303 6.84377 59.6271 6.86393C59.044 6.88409 58.4408 6.91433 57.8175 6.95464C57.1942 6.99496 56.6211 7.03528 56.0983 7.07559C55.5755 7.11591 55.1332 7.16631 54.7713 7.22678C54.4093 7.28726 54.1882 7.34773 54.1077 7.40821C53.8463 7.67027 53.7157 7.97264 53.7157 8.31534C53.7157 8.53708 53.776 8.7185 53.8966 8.85961C53.9368 8.92009 54.158 8.97048 54.5601 9.0108C54.9623 9.05112 55.4549 9.09143 56.038 9.13175C56.6211 9.15191 57.2545 9.17207 57.9381 9.19222C58.6419 9.19222 59.3054 9.2023 59.9287 9.22246C60.5721 9.22246 61.1351 9.23254 61.6177 9.2527C62.1203 9.27286 62.4722 9.29302 62.6733 9.31318C63.4374 9.41397 64.0406 9.63571 64.4829 9.9784C64.9454 10.3211 65.2972 10.7545 65.5385 11.2786C65.7798 11.7826 65.9306 12.3571 65.9909 13.0022C66.0714 13.6472 66.1116 14.3024 66.1116 14.9676C66.1116 15.2901 66.0814 15.6731 66.0211 16.1166C65.9809 16.5601 65.9105 17.0036 65.81 17.4471C65.7094 17.8906 65.5586 18.3038 65.3576 18.6868C65.1766 19.0698 64.9554 19.3722 64.694 19.594C64.3924 19.8359 63.8998 20.0374 63.2162 20.1987C62.5527 20.36 61.8288 20.491 61.0446 20.5918C60.2806 20.6926 59.5366 20.7631 58.8128 20.8035C58.0889 20.8438 57.536 20.8639 57.1539 20.8639C55.8269 20.8639 54.4998 20.7934 53.1728 20.6523C51.8457 20.491 50.5287 20.3197 49.2218 20.1382V14.3629C50.4885 14.6249 51.7552 14.7761 53.022 14.8164C54.3088 14.8567 55.5957 14.9273 56.8825 15.0281C57.1439 15.0482 57.536 15.0684 58.0588 15.0886C58.6016 15.0886 59.1445 15.0785 59.6874 15.0583C60.2303 15.018 60.7229 14.9474 61.1653 14.8467C61.6076 14.7459 61.8791 14.6048 61.9796 14.4233C62.0198 14.3629 62.0399 14.2923 62.0399 14.2117C62.0399 14.131 62.0399 14.0605 62.0399 14C62.0399 13.8387 62.0198 13.6371 61.9796 13.3952C61.9595 13.1332 61.8992 12.9316 61.7986 12.7905C61.7785 12.7703 61.7082 12.7603 61.5875 12.7603C61.4669 12.7401 61.3965 12.73 61.3764 12.73C60.2504 12.6695 59.1244 12.6393 57.9984 12.6393C56.8724 12.6192 55.7364 12.5587 54.5903 12.4579C54.1278 12.4176 53.6553 12.3772 53.1728 12.3369C52.7103 12.2765 52.2478 12.1958 51.7854 12.095C51.4034 12.0144 51.0515 11.9237 50.7298 11.8229C50.4282 11.7221 50.1567 11.5911 49.9154 11.4298C49.6943 11.2685 49.5033 11.067 49.3424 10.8251C49.1815 10.563 49.071 10.2203 49.0106 9.79698C48.9704 9.65587 48.9503 9.52484 48.9503 9.40389C48.9503 9.26278 48.9503 9.11159 48.9503 8.95032C48.9503 8.58747 48.9704 8.17423 49.0106 7.71058C49.0508 7.24694 49.1212 6.7833 49.2218 6.31965C49.3424 5.85601 49.4831 5.42261 49.644 5.01944C49.825 4.59611 50.0562 4.25342 50.3377 3.99136C50.5187 3.80994 50.8404 3.65875 51.3028 3.5378C51.7653 3.41685 52.2981 3.31605 52.9013 3.23542C53.5045 3.13463 54.148 3.054 54.8316 2.99352C55.5152 2.93305 56.1687 2.89273 56.792 2.87257C57.4354 2.83225 58.0085 2.8121 58.5112 2.8121C59.0339 2.79194 59.426 2.78186 59.6874 2.78186C60.8134 2.78186 61.9193 2.80202 63.0051 2.84233C64.1109 2.88265 65.2068 2.93305 66.2925 2.99352Z" fill="#FFBB00"/>
<path d="M84.3586 23.2225C81.9659 23.4039 79.5832 23.5752 77.2106 23.7365C74.8581 23.8978 72.4855 24.049 70.0927 24.1901C69.9922 20.3398 69.9118 16.5198 69.8515 12.73C69.7911 8.92009 69.6806 5.07991 69.5197 1.2095C70.8669 1.18934 72.1939 1.14903 73.5009 1.08855C74.8078 1.02808 76.1248 0.947444 77.4519 0.846652C77.2307 2.33837 77.0196 3.84017 76.8185 5.35205C76.6376 6.84377 76.4968 8.34557 76.3963 9.85745C76.3158 11.1274 76.2455 12.3974 76.1851 13.6674C76.1449 14.9172 76.1047 16.1771 76.0645 17.4471C77.3916 17.4874 78.6985 17.5076 79.9854 17.5076C81.2923 17.5076 82.5993 17.5277 83.9062 17.568L84.3586 23.2225Z" fill="#FFBB00"/>
<path d="M106.858 22.4363L101.761 22.6479L101.399 19.594C101.017 20.1181 100.555 20.5616 100.012 20.9244C99.4891 21.2873 98.916 21.5796 98.2927 21.8013C97.6895 22.023 97.0561 22.1843 96.3926 22.2851C95.7492 22.3657 95.1158 22.406 94.4925 22.406C94.0099 22.406 93.4067 22.3657 92.6829 22.2851C91.9791 22.2045 91.2553 22.0936 90.5113 21.9525C89.7875 21.7912 89.1139 21.5896 88.4906 21.3477C87.8673 21.1058 87.4149 20.8236 87.1334 20.5011C86.9122 20.2592 86.7413 19.8762 86.6206 19.3521C86.5201 18.8078 86.4497 18.2333 86.4095 17.6285C86.3693 17.0238 86.3492 16.4392 86.3492 15.8747C86.3492 15.3103 86.3492 14.8567 86.3492 14.514C86.3492 13.0022 86.4095 11.5104 86.5302 10.0389C86.6508 8.56732 86.8217 7.10583 87.0429 5.65443C87.6059 5.59395 88.2091 5.56371 88.8525 5.56371C89.3753 5.56371 89.8981 5.60403 90.4208 5.68467C90.9436 5.74514 91.4664 5.82577 91.9892 5.92657C91.9892 6.02736 91.9992 6.31965 92.0193 6.80346C92.0395 7.28726 92.0596 7.86177 92.0797 8.527C92.1199 9.19222 92.1601 9.90785 92.2003 10.6739C92.2405 11.4197 92.2807 12.1152 92.321 12.7603C92.3813 13.4053 92.4416 13.9597 92.5019 14.4233C92.5823 14.8668 92.6628 15.1087 92.7432 15.149C93.0448 15.3305 93.3766 15.4312 93.7385 15.4514C94.1004 15.4716 94.4523 15.4816 94.7941 15.4816C95.0354 15.4816 95.4074 15.4716 95.91 15.4514C96.4328 15.4111 96.9657 15.3607 97.5085 15.3002C98.0514 15.2196 98.5541 15.1289 99.0166 15.0281C99.479 14.9071 99.7907 14.766 99.9515 14.6048C100.012 14.5443 100.052 14.3528 100.072 14.0302C100.112 13.7077 100.132 13.3549 100.132 12.9719C100.153 12.5889 100.163 12.2361 100.163 11.9136C100.183 11.5709 100.193 11.3693 100.193 11.3089C100.193 10.4017 100.173 9.50468 100.132 8.61771C100.092 7.73074 100.052 6.83369 100.012 5.92657L105.863 5.65443C105.984 7.06551 106.094 8.4766 106.195 9.88769C106.295 11.2786 106.426 12.6796 106.587 14.0907C106.647 14.5544 106.677 15.0281 106.677 15.5119C106.697 15.9957 106.718 16.4795 106.738 16.9633C106.778 17.8704 106.798 18.7775 106.798 19.6847C106.818 20.5918 106.838 21.509 106.858 22.4363Z" fill="#FFBB00"/>
<path d="M127.729 14.9978C127.729 15.5421 127.729 16.0965 127.729 16.6609C127.729 17.2052 127.709 17.7495 127.669 18.2937L120.943 18.7171C121.024 17.6688 121.084 16.6307 121.124 15.6026C121.184 14.5745 121.215 13.5263 121.215 12.4579C121.215 12.3571 121.215 12.1857 121.215 11.9438C121.215 11.7019 121.205 11.45 121.184 11.1879C121.164 10.9057 121.144 10.6436 121.124 10.4017C121.104 10.1598 121.084 9.98848 121.064 9.88769C120.963 9.60547 120.853 9.36357 120.732 9.16199C120.632 8.9604 120.501 8.79914 120.34 8.67819C120.199 8.55723 120.018 8.4766 119.797 8.43629C119.576 8.37581 119.304 8.34557 118.983 8.34557C118.741 8.34557 118.43 8.36573 118.048 8.40605C117.686 8.44636 117.314 8.50684 116.932 8.58747C116.55 8.66811 116.188 8.7689 115.846 8.88985C115.504 9.0108 115.263 9.15191 115.122 9.31318L115.062 18.2333C115.022 18.1526 114.901 18.1123 114.7 18.1123C114.519 18.1123 114.388 18.1123 114.308 18.1123C113.705 18.1123 113.081 18.1425 112.438 18.203C111.795 18.2433 111.171 18.3038 110.568 18.3844C110.307 16.0058 110.075 13.6371 109.874 11.2786C109.673 8.92009 109.442 6.55148 109.181 4.17279C109.583 4.15263 109.985 4.14255 110.387 4.14255C110.789 4.12239 111.191 4.11231 111.593 4.11231C112.116 4.11231 112.639 4.13247 113.162 4.17279C113.705 4.19294 114.238 4.2131 114.76 4.23326L114.971 6.56156C115.534 5.63427 116.298 4.85817 117.264 4.23326C118.229 3.60835 119.264 3.2959 120.37 3.2959C120.933 3.2959 121.516 3.32613 122.119 3.38661C122.723 3.44708 123.296 3.56803 123.839 3.74946C124.402 3.93089 124.924 4.18287 125.407 4.5054C125.91 4.82793 126.332 5.24118 126.674 5.74514C126.834 5.98704 126.965 6.34989 127.066 6.83369C127.186 7.29734 127.287 7.83153 127.367 8.43629C127.448 9.02088 127.508 9.64579 127.548 10.311C127.609 10.9762 127.649 11.6112 127.669 12.216C127.689 12.8207 127.699 13.3751 127.699 13.8791C127.719 14.3629 127.729 14.7358 127.729 14.9978Z" fill="#FFBB00"/>
<path d="M150.41 8.0432C150.41 8.97048 150.289 9.86753 150.048 10.7343C149.907 10.7545 149.485 10.7847 148.781 10.8251C148.098 10.8452 147.273 10.8855 146.308 10.946C145.363 10.9863 144.338 11.0468 143.232 11.1274C142.146 11.1879 141.131 11.2585 140.185 11.3391C139.261 11.4197 138.466 11.5104 137.803 11.6112C137.159 11.6919 136.797 11.7725 136.717 11.8531C136.395 12.1353 136.154 12.478 135.993 12.8812C135.832 13.2844 135.752 13.6875 135.752 14.0907C135.752 14.3326 135.772 14.5241 135.812 14.6652C135.873 14.7862 135.963 14.9273 136.084 15.0886C136.144 15.149 136.355 15.1994 136.717 15.2397C137.079 15.2801 137.481 15.3103 137.923 15.3305C138.366 15.3506 138.778 15.3708 139.16 15.3909C139.542 15.3909 139.763 15.3909 139.824 15.3909C141.271 15.3909 142.719 15.3607 144.167 15.3002C145.614 15.2397 147.062 15.1591 148.51 15.0583L148.751 20.2592C146.74 20.4204 144.72 20.5817 142.689 20.743C140.678 20.8841 138.657 20.9546 136.627 20.9546C136.526 20.9546 136.375 20.9546 136.174 20.9546C135.993 20.9546 135.792 20.9546 135.571 20.9546C135.35 20.9345 135.139 20.9143 134.938 20.8942C134.737 20.874 134.596 20.8539 134.515 20.8337C134.093 20.7127 133.671 20.5817 133.249 20.4406C132.846 20.2793 132.464 20.0878 132.103 19.8661C131.741 19.6242 131.419 19.342 131.137 19.0194C130.876 18.6969 130.685 18.3038 130.564 17.8402C130.484 17.5378 130.414 17.1447 130.353 16.6609C130.313 16.1569 130.283 15.6429 130.263 15.1188C130.243 14.5947 130.223 14.0806 130.202 13.5767C130.202 13.0727 130.202 12.6494 130.202 12.3067C130.202 11.5205 130.212 10.7847 130.233 10.0994C130.253 9.41397 130.363 8.78906 130.564 8.22462C130.765 7.64003 131.087 7.12599 131.529 6.68251C131.992 6.21886 132.645 5.81569 133.49 5.473C133.872 5.31174 134.445 5.19078 135.209 5.11015C135.973 5.00936 136.767 4.9388 137.592 4.89849C138.436 4.83801 139.24 4.7977 140.005 4.77754C140.769 4.75738 141.362 4.7473 141.784 4.7473C143.191 4.7473 144.589 4.77754 145.976 4.83801C147.384 4.89849 148.791 4.97912 150.199 5.07991C150.259 5.58387 150.309 6.08783 150.35 6.59179C150.39 7.07559 150.41 7.5594 150.41 8.0432Z" fill="#FFBB00"/>
<path d="M173 12.1857C173 12.9316 172.95 13.6875 172.849 14.4536C172.769 15.1994 172.678 15.9453 172.578 16.6911C172.417 18.0014 172.236 19.3017 172.035 20.5918C171.834 21.8618 171.633 23.1519 171.432 24.4622C170.446 24.4824 169.481 24.5227 168.536 24.5832C167.591 24.6436 166.636 24.7142 165.671 24.7948C165.671 23.3233 165.671 21.8719 165.671 20.4406C165.671 18.9892 165.641 17.5378 165.581 16.0864C165.581 15.8042 165.57 15.4413 165.55 14.9978C165.55 14.5544 165.51 14.1915 165.43 13.9093C165.309 13.4456 165.158 13.1332 164.977 12.9719C164.796 12.7905 164.445 12.6998 163.922 12.6998C163.56 12.6998 163.138 12.7401 162.655 12.8207C162.172 12.9014 161.68 13.0022 161.177 13.1231C160.674 13.2441 160.192 13.3852 159.729 13.5464C159.287 13.6875 158.915 13.8387 158.613 14C158.453 15.6328 158.252 17.2556 158.01 18.8683C157.789 20.4809 157.648 22.1138 157.588 23.7667L153.335 23.5551C153.114 19.9266 152.903 16.3182 152.702 12.73C152.501 9.12167 152.31 5.50324 152.129 1.87473L158.764 1.4514C158.724 2.78186 158.684 4.11231 158.644 5.44276C158.603 6.75306 158.563 8.07343 158.523 9.40389C158.905 9.08135 159.337 8.83945 159.82 8.67819C160.302 8.49676 160.795 8.37581 161.298 8.31534C161.821 8.25486 162.343 8.22462 162.866 8.22462C163.389 8.22462 163.892 8.22462 164.374 8.22462C165.098 8.22462 165.912 8.25486 166.817 8.31534C167.742 8.35565 168.617 8.49676 169.441 8.73866C170.286 8.9604 171.03 9.32325 171.673 9.82721C172.316 10.3312 172.749 11.0367 172.97 11.9438C172.99 11.9842 173 12.0245 173 12.0648C173 12.1051 173 12.1454 173 12.1857Z" fill="#FFBB00"/>
</svg>
