<svg width="1050" height="322" viewBox="0 0 1050 322" fill="none" xmlns="http://www.w3.org/2000/svg">
<path d="M462.133 227.141L448.344 230.836L440.203 200.453C446.642 197.229 451.772 191.882 454.728 185.316C457.684 178.749 458.285 171.364 456.43 164.406C446.586 127.687 426.133 95.4844 425.266 94.1328C424.56 93.0299 423.526 92.1763 422.309 91.6927C421.092 91.2091 419.755 91.1198 418.484 91.4375L401.406 95.7109C401.406 89.2656 401.266 85.2188 401.242 84.7109C401.18 83.3683 400.686 82.0815 399.835 81.0415C398.984 80.0015 397.82 79.2637 396.516 78.9375L371.516 72.6875C370.245 72.3698 368.908 72.4591 367.691 72.9427C366.474 73.4263 365.44 74.2799 364.734 75.3828C363.867 76.7344 343.414 108.922 333.57 145.695C331.715 152.653 332.316 160.038 335.272 166.605C338.228 173.171 343.358 178.518 349.797 181.742L341.656 212.086L327.867 208.391C326.266 207.962 324.559 208.187 323.123 209.016C321.687 209.845 320.64 211.211 320.211 212.813C319.782 214.414 320.007 216.121 320.836 217.556C321.665 218.992 323.031 220.04 324.633 220.469L362.133 230.516C362.661 230.654 363.204 230.725 363.75 230.727C365.268 230.728 366.734 230.178 367.876 229.178C369.017 228.178 369.756 226.797 369.954 225.292C370.152 223.787 369.796 222.262 368.952 221.001C368.108 219.74 366.834 218.828 365.367 218.438L353.727 215.313L361.867 184.93C362.5 184.969 363.125 184.992 363.75 184.992C369.95 184.975 376.007 183.119 381.152 179.659C386.297 176.199 390.301 171.29 392.656 165.555C393.578 170.531 394.687 175.57 396.023 180.57C397.812 187.22 401.742 193.095 407.207 197.285C412.671 201.475 419.364 203.748 426.25 203.75C426.875 203.75 427.5 203.75 428.133 203.688L436.273 234.07L424.633 237.195C423.173 237.592 421.907 238.504 421.069 239.764C420.231 241.023 419.878 242.543 420.075 244.043C420.273 245.542 421.007 246.919 422.143 247.918C423.278 248.918 424.737 249.471 426.25 249.477C426.796 249.475 427.339 249.404 427.867 249.266L465.367 239.219C466.969 238.79 468.335 237.742 469.164 236.306C469.993 234.871 470.218 233.164 469.789 231.563C469.36 229.961 468.313 228.595 466.877 227.766C465.441 226.937 463.734 226.712 462.133 227.141ZM417.047 104.68C419.219 108.352 422.695 114.477 426.578 122.227L401.25 128.57C400.922 120.758 400.953 114.313 401.055 109.984C401.055 109.547 401.094 109.109 401.117 108.672L417.047 104.68ZM372.953 85.9297L388.867 89.9063C388.914 93.25 388.867 98.2422 388.703 104.336C388.656 105.281 388.578 106.828 388.523 108.898C388.523 109.68 388.445 110.461 388.398 111.242L362.727 104.867C366.875 96.4609 370.656 89.8125 372.953 85.9297ZM381.852 158.656C380.508 163.402 377.348 167.428 373.057 169.86C368.766 172.293 363.69 172.936 358.927 171.652C354.165 170.367 350.101 167.258 347.615 162.997C345.13 158.737 344.423 153.669 345.648 148.891C348.726 137.779 352.643 126.917 357.367 116.398L387.508 123.93C386.456 135.626 384.566 147.231 381.852 158.656ZM408.133 177.344C405.072 165.509 403.031 153.433 402.031 141.25L432.039 133.75C437.026 144.708 441.14 156.043 444.344 167.648C445.022 170.039 445.218 172.542 444.921 175.009C444.623 177.477 443.838 179.86 442.611 182.022C441.384 184.183 439.74 186.079 437.773 187.599C435.807 189.119 433.558 190.233 431.158 190.877C428.757 191.52 426.252 191.679 423.789 191.346C421.326 191.012 418.954 190.192 416.811 188.934C414.668 187.675 412.796 186.003 411.305 184.015C409.814 182.026 408.733 179.761 408.125 177.352L408.133 177.344ZM439.383 94.0469C439.015 93.3124 438.796 92.5126 438.737 91.6933C438.679 90.8739 438.782 90.0511 439.042 89.2718C439.302 88.4925 439.713 87.7721 440.251 87.1517C440.789 86.5313 441.445 86.0231 442.18 85.6563L454.68 79.4063C455.414 79.039 456.214 78.82 457.033 78.7617C457.852 78.7035 458.675 78.8072 459.454 79.0669C460.233 79.3266 460.954 79.7373 461.574 80.2754C462.195 80.8135 462.703 81.4685 463.07 82.2031C463.438 82.9377 463.657 83.7374 463.715 84.5567C463.773 85.3759 463.669 86.1985 463.41 86.9777C463.15 87.7568 462.739 88.4772 462.201 89.0976C461.663 89.7181 461.008 90.2265 460.273 90.5938L447.773 96.8438C447.039 97.2116 446.239 97.431 445.42 97.4895C444.6 97.548 443.778 97.4444 442.998 97.1846C442.219 96.9249 441.499 96.5141 440.878 95.9756C440.258 95.4372 439.75 94.7818 439.383 94.0469ZM476.25 116.25C476.25 117.908 475.592 119.497 474.419 120.669C473.247 121.842 471.658 122.5 470 122.5H457.5C455.842 122.5 454.253 121.842 453.081 120.669C451.908 119.497 451.25 117.908 451.25 116.25C451.25 114.592 451.908 113.003 453.081 111.831C454.253 110.658 455.842 110 457.5 110H470C471.658 110 473.247 110.658 474.419 111.831C475.592 113.003 476.25 114.592 476.25 116.25ZM320.656 75.9531C321.023 75.2182 321.531 74.5628 322.152 74.0244C322.772 73.486 323.493 73.0751 324.272 72.8154C325.051 72.5556 325.874 72.452 326.693 72.5105C327.513 72.569 328.312 72.7884 329.047 73.1563L341.547 79.4063C342.281 79.7735 342.937 80.2819 343.475 80.9024C344.013 81.5228 344.423 82.2432 344.683 83.0223C344.943 83.8015 345.046 84.6241 344.988 85.4433C344.93 86.2626 344.711 87.0623 344.344 87.7969C343.976 88.5315 343.468 89.1865 342.848 89.7246C342.227 90.2627 341.507 90.6734 340.728 90.9331C339.154 91.4576 337.437 91.3355 335.953 90.5938L323.453 84.3438C322.718 83.9769 322.063 83.4687 321.524 82.8483C320.986 82.2279 320.575 81.5075 320.315 80.7282C320.056 79.9489 319.952 79.1261 320.01 78.3067C320.069 77.4874 320.288 76.6876 320.656 75.9531ZM326.25 116.25H313.75C312.092 116.25 310.503 115.592 309.331 114.419C308.158 113.247 307.5 111.658 307.5 110C307.5 108.342 308.158 106.753 309.331 105.581C310.503 104.408 312.092 103.75 313.75 103.75H326.25C327.908 103.75 329.497 104.408 330.669 105.581C331.842 106.753 332.5 108.342 332.5 110C332.5 111.658 331.842 113.247 330.669 114.419C329.497 115.592 327.908 116.25 326.25 116.25Z" fill="url(#paint0_linear_168_47)"/>
<path d="M72.5547 141.25H197.445C199.316 141.259 201.166 140.849 202.857 140.048C204.548 139.248 206.038 138.078 207.217 136.625C208.395 135.172 209.233 133.472 209.667 131.652C210.102 129.832 210.122 127.938 209.727 126.109C203.922 98.6719 172.5 78.75 135 78.75C97.5 78.75 66.0781 98.6719 60.2734 126.109C59.8781 127.938 59.8985 129.832 60.3329 131.652C60.7673 133.472 61.6048 135.172 62.7834 136.625C63.9621 138.078 65.452 139.248 67.1432 140.048C68.8343 140.849 70.6836 141.259 72.5547 141.25ZM135 91.25C166.109 91.25 192.977 107.352 197.445 128.75H72.5547L72.5 128.695C77.0234 107.352 103.891 91.25 135 91.25ZM214.109 179.125L181.977 190.844L152.969 179.195C151.479 178.6 149.818 178.6 148.328 179.195L119.422 190.766L90.4688 179.195C89.0434 178.626 87.4583 178.601 86.0156 179.125L51.6406 191.625C50.1878 192.264 49.0327 193.433 48.4098 194.893C47.787 196.353 47.743 197.995 48.2868 199.487C48.8306 200.978 49.9215 202.206 51.338 202.923C52.7546 203.639 54.3906 203.79 55.9141 203.344L66.25 199.602V203.75C66.25 212.038 69.5424 219.987 75.4029 225.847C81.2634 231.708 89.212 235 97.5 235H172.5C180.788 235 188.737 231.708 194.597 225.847C200.458 219.987 203.75 212.038 203.75 203.75V196.195L218.383 190.875C219.203 190.635 219.966 190.229 220.623 189.682C221.281 189.136 221.819 188.46 222.205 187.697C222.591 186.934 222.816 186.1 222.866 185.247C222.917 184.393 222.792 183.539 222.499 182.735C222.206 181.932 221.752 181.198 221.163 180.577C220.575 179.957 219.866 179.463 219.08 179.128C218.293 178.792 217.447 178.622 216.592 178.627C215.737 178.632 214.892 178.812 214.109 179.156V179.125ZM191.25 203.75C191.25 208.723 189.275 213.492 185.758 217.008C182.242 220.525 177.473 222.5 172.5 222.5H97.5C92.5272 222.5 87.7581 220.525 84.2417 217.008C80.7254 213.492 78.75 208.723 78.75 203.75V195.063L88.0234 191.687L117.031 203.305C118.521 203.9 120.182 203.9 121.672 203.305L150.578 191.734L179.484 203.305C180.91 203.874 182.495 203.899 183.937 203.375L191.18 200.742L191.25 203.75ZM47.5 160C47.5 158.342 48.1585 156.753 49.3306 155.581C50.5027 154.408 52.0924 153.75 53.75 153.75H216.25C217.908 153.75 219.497 154.408 220.669 155.581C221.842 156.753 222.5 158.342 222.5 160C222.5 161.658 221.842 163.247 220.669 164.419C219.497 165.592 217.908 166.25 216.25 166.25H53.75C52.0924 166.25 50.5027 165.592 49.3306 164.419C48.1585 163.247 47.5 161.658 47.5 160Z" fill="url(#paint1_linear_168_47)"/>
<path d="M896.25 141.25V203.75C896.25 205.408 895.592 206.997 894.419 208.169C893.247 209.342 891.658 210 890 210C888.342 210 886.753 209.342 885.581 208.169C884.408 206.997 883.75 205.408 883.75 203.75V141.25C883.75 139.592 884.408 138.003 885.581 136.831C886.753 135.658 888.342 135 890 135C891.658 135 893.247 135.658 894.419 136.831C895.592 138.003 896.25 139.592 896.25 141.25ZM927.5 135C925.842 135 924.253 135.658 923.081 136.831C921.908 138.003 921.25 139.592 921.25 141.25V203.75C921.25 205.408 921.908 206.997 923.081 208.169C924.253 209.342 925.842 210 927.5 210C929.158 210 930.747 209.342 931.919 208.169C933.092 206.997 933.75 205.408 933.75 203.75V141.25C933.75 139.592 933.092 138.003 931.919 136.831C930.747 135.658 929.158 135 927.5 135ZM1002.5 147.5V197.5C1002.5 202.473 1000.52 207.242 997.008 210.758C993.492 214.275 988.723 216.25 983.75 216.25H971.25V222.5C971.25 225.815 969.933 228.995 967.589 231.339C965.245 233.683 962.065 235 958.75 235H858.75C855.435 235 852.255 233.683 849.911 231.339C847.567 228.995 846.25 225.815 846.25 222.5V116.25C846.25 92.125 868.68 72.5 896.25 72.5C909.352 72.5 921.961 77.0313 931.266 85H940C948.288 85 956.237 88.2924 962.097 94.1529C967.958 100.013 971.25 107.962 971.25 116.25V128.75H983.75C988.723 128.75 993.492 130.725 997.008 134.242C1000.52 137.758 1002.5 142.527 1002.5 147.5ZM859.531 110H957.672C956.38 106.345 953.987 103.181 950.822 100.942C947.657 98.7038 943.876 97.5012 940 97.5H928.859C927.25 97.4998 925.702 96.8785 924.539 95.7656C917.391 88.9062 907.086 85 896.25 85C878.141 85 862.992 95.75 859.531 110ZM958.75 222.5V122.5H858.75V222.5H958.75ZM990 147.5C990 145.842 989.342 144.253 988.169 143.081C986.997 141.908 985.408 141.25 983.75 141.25H971.25V203.75H983.75C985.408 203.75 986.997 203.092 988.169 201.919C989.342 200.747 990 199.158 990 197.5V147.5Z" fill="url(#paint2_linear_168_47)"/>
<path d="M742.14 109.219C741.755 107.619 741.056 106.111 740.084 104.784C739.112 103.456 737.886 102.334 736.476 101.484C711.9 86.6172 683.724 78.7579 655 78.7579C626.276 78.7579 598.1 86.6172 573.523 101.484C572.118 102.336 570.895 103.457 569.924 104.783C568.952 106.108 568.252 107.612 567.862 109.208C567.472 110.805 567.401 112.462 567.653 114.086C567.904 115.71 568.474 117.268 569.328 118.672L644.328 241.539C645.442 243.376 647.011 244.895 648.883 245.949C650.755 247.003 652.867 247.556 655.016 247.556C657.164 247.556 659.276 247.003 661.148 245.949C663.02 244.895 664.589 243.376 665.703 241.539L740.703 118.672C741.558 117.271 742.126 115.713 742.373 114.09C742.62 112.467 742.541 110.811 742.14 109.219ZM604.68 152.578C606.71 150.664 609.143 149.228 611.799 148.374C614.456 147.519 617.269 147.269 620.035 147.64C622.801 148.012 625.448 148.996 627.785 150.521C630.122 152.046 632.089 154.073 633.543 156.455C634.997 158.837 635.901 161.513 636.189 164.289C636.477 167.064 636.142 169.869 635.208 172.499C634.274 175.128 632.765 177.516 630.791 179.488C628.817 181.46 626.427 182.967 623.797 183.898L604.68 152.578ZM673.367 204.883C670.237 201.932 668.217 197.994 667.646 193.73C667.075 189.466 667.988 185.136 670.231 181.465C672.474 177.794 675.911 175.006 679.965 173.569C684.02 172.131 688.446 172.132 692.5 173.57L673.367 204.883ZM699.094 162.75C692.147 159.597 684.286 159.094 676.994 161.336C669.702 163.578 663.482 168.41 659.507 174.921C655.531 181.432 654.074 189.172 655.411 196.683C656.749 204.194 660.787 210.956 666.765 215.695L655 235L630.391 194.711C634.431 192.89 638.038 190.231 640.972 186.91C643.906 183.589 646.1 179.682 647.408 175.448C648.717 171.214 649.11 166.75 648.562 162.352C648.013 157.955 646.536 153.724 644.227 149.942C641.919 146.159 638.832 142.91 635.172 140.411C631.512 137.913 627.363 136.221 622.999 135.448C618.635 134.676 614.157 134.84 609.862 135.931C605.567 137.021 601.553 139.013 598.086 141.773L593.125 133.641C611.758 122.267 633.166 116.249 654.996 116.249C676.826 116.249 698.234 122.267 716.867 133.641L699.094 162.75ZM723.39 122.961C702.791 110.397 679.129 103.751 655 103.751C630.871 103.751 607.209 110.397 586.609 122.961L580 112.164C602.627 98.4891 628.562 91.2608 655 91.2608C681.438 91.2608 707.373 98.4891 730 112.164L723.39 122.961Z" fill="url(#paint3_linear_168_47)"/>
<defs>
<linearGradient id="paint0_linear_168_47" x1="391.875" y1="72.4946" x2="391.875" y2="249.477" gradientUnits="userSpaceOnUse">
<stop stop-color="#FFBF00"/>
<stop offset="1" stop-color="#F2A50C"/>
</linearGradient>
<linearGradient id="paint1_linear_168_47" x1="135.189" y1="78.75" x2="135.189" y2="235" gradientUnits="userSpaceOnUse">
<stop stop-color="#FFBF00"/>
<stop offset="1" stop-color="#F2A50C"/>
</linearGradient>
<linearGradient id="paint2_linear_168_47" x1="924.375" y1="72.5" x2="924.375" y2="235" gradientUnits="userSpaceOnUse">
<stop stop-color="#FFBF00"/>
<stop offset="1" stop-color="#F2A50C"/>
</linearGradient>
<linearGradient id="paint3_linear_168_47" x1="655.009" y1="78.7579" x2="655.009" y2="247.556" gradientUnits="userSpaceOnUse">
<stop stop-color="#FFBF00"/>
<stop offset="1" stop-color="#F2A50C"/>
</linearGradient>
</defs>
</svg>
